<svg xmlns="http://www.w3.org/2000/svg" width="30" height="22" fill="none" viewBox="0 0 30 22"><g fill="#eee" clip-path="url(#a)"><path d="M25.71 21.66H4.29a4.255 4.255 0 0 1-4.25-4.25V4.59A4.255 4.255 0 0 1 4.29.34h21.42a4.255 4.255 0 0 1 4.25 4.25v12.82a4.255 4.255 0 0 1-4.25 4.25M4.29 1.84a2.75 2.75 0 0 0-2.75 2.75v12.82a2.75 2.75 0 0 0 2.75 2.75h21.42a2.75 2.75 0 0 0 2.75-2.75V4.59a2.75 2.75 0 0 0-2.75-2.75z"/><path d="M15 14.04a4.26 4.26 0 0 1-2.565-.855L.76 4.355a.75.75 0 1 1 .905-1.195L13.34 12a2.775 2.775 0 0 0 3.32 0l11.675-8.84a.75.75 0 1 1 .905 1.195l-11.675 8.83c-.74.556-1.64.857-2.565.855"/><path d="M1.085 19.57a.75.75 0 0 1-.5-1.31l9.2-8.205a.75.75 0 0 1 1 1.12l-9.2 8.205a.73.73 0 0 1-.5.19m27.83 0a.73.73 0 0 1-.5-.19l-9.2-8.205a.75.75 0 1 1 1-1.12l9.195 8.205a.75.75 0 0 1-.5 1.31z"/></g><defs><clipPath id="a"><path fill="#fff" d="M0 0h30v22H0z"/></clipPath></defs></svg>