<svg xmlns="http://www.w3.org/2000/svg" width="21" height="22" fill="none" viewBox="0 0 21 22"><g clip-path="url(#a)"><path fill="#eee" fill-opacity=".75" d="M9.07 19.503a1 1 0 0 0-1.18-.983c-1.31.24-2.963.276-3.402-.959a5.7 5.7 0 0 0-1.837-2.415 1 1 0 0 1-.167-.109 1 1 0 0 0-.93-.645h-.005a1 1 0 0 0-1 .995c-.004.815.81 1.338 1.141 1.514.39.392.704.853.924 1.36.365 1.023 1.423 2.576 4.466 2.376l.003.098.004.268a1 1 0 1 0 2 0l-.005-.318c-.005-.19-.012-.464-.012-1.182M19.737 4.377a6 6 0 0 0 .09-.42A6.3 6.3 0 0 0 19.42.664a1 1 0 0 0-.615-.58c-.356-.12-1.67-.357-4.184 1.25a13.9 13.9 0 0 0-6.354 0C5.762-.249 4.455-.034 4.102.079a1 1 0 0 0-.631.584 6.3 6.3 0 0 0-.404 3.357q.037.191.079.354a6.27 6.27 0 0 0-1.256 3.83q-.004.461.043.921c.334 4.602 3.334 5.984 5.424 6.459a5 5 0 0 0-.118.4 1 1 0 0 0 1.942.479 1.7 1.7 0 0 1 .468-.878 1 1 0 0 0-.546-1.745c-3.454-.395-4.954-1.802-5.18-4.899a7 7 0 0 1-.033-.738A4.26 4.26 0 0 1 5.005 5.26a1 1 0 0 0 .188-1.025 3.4 3.4 0 0 1-.155-.555 4.1 4.1 0 0 1 .079-1.616 7.6 7.6 0 0 1 2.415 1.18 1 1 0 0 0 .827.133 11.8 11.8 0 0 1 6.173.001 1 1 0 0 0 .83-.138 7.6 7.6 0 0 1 2.406-1.19c.133.515.162 1.051.087 1.578a3.2 3.2 0 0 1-.169.607 1 1 0 0 0 .189 1.025c.077.087.154.18.223.268.606.758.926 1.706.902 2.676q.003.39-.038.777c-.22 3.056-1.725 4.464-5.195 4.86a1 1 0 0 0-.546 1.746c.249.245.412.563.466.908.068.268.1.544.093.82v2.334c-.01.647-.01 1.132-.01 1.355a1 1 0 1 0 2 0c0-.217 0-.692.01-1.34v-2.35a5 5 0 0 0-.155-1.311q-.048-.211-.116-.416a6.51 6.51 0 0 0 5.445-6.424 9 9 0 0 0 .046-.96 6.13 6.13 0 0 0-1.263-3.826"/></g><defs><clipPath id="a"><path fill="#fff" d="M0 0h21v22H0z"/></clipPath></defs></svg>